<!-- icon666.com - MILLIONS vector ICONS FREE --><svg viewBox="-12 0 60 60" xmlns="http://www.w3.org/2000/svg" xmlns:xlink="http://www.w3.org/1999/xlink"><linearGradient id="a"><stop offset="0" stop-color="#e93e3a"></stop><stop offset=".353" stop-color="#ed683c"></stop><stop offset=".707" stop-color="#f3903f"></stop><stop offset="1" stop-color="#fdc70c"></stop></linearGradient><linearGradient id="b" gradientUnits="userSpaceOnUse" x1="18" x2="18" xlink:href="#a" y1="60.573" y2="-5.799"></linearGradient><linearGradient id="c" gradientUnits="userSpaceOnUse" x1="5" x2="5" xlink:href="#a" y1="60.573" y2="-5.799"></linearGradient><linearGradient id="d" gradientUnits="userSpaceOnUse" x1="11" x2="11" xlink:href="#a" y1="60.573" y2="-5.799"></linearGradient><linearGradient id="e" gradientUnits="userSpaceOnUse" x1="25" x2="25" xlink:href="#a" y1="60.573" y2="-5.799"></linearGradient><path d="m31 0h-26c-2.761719.00390625-4.99609375 2.238281-5 5v50c.00390625 2.761719 2.238281 4.996094 5 5h26c2.761719-.003906 4.996094-2.238281 5-5v-50c-.003906-2.761719-2.238281-4.99609375-5-5zm-29 5c0-1.65625 1.34375-3 3-3h26c1.65625 0 3 1.34375 3 3v3h-32zm32 5v40h-32v-40zm0 45c0 1.65625-1.34375 3-3 3h-26c-1.65625 0-3-1.34375-3-3v-3h32zm0 0" fill="url(#b)"></path><path d="m4 4h2v2h-2zm0 0" fill="url(#c)"></path><path d="m8 4h6v2h-6zm0 0" fill="url(#d)"></path><path d="m16 54h4v2h-4zm0 0" fill="url(#b)"></path><path d="m7 29h8c1.105469 0 2-.894531 2-2v-10c0-1.105469-.894531-2-2-2h-8c-1.105469 0-2 .894531-2 2v10c0 1.105469.894531 2 2 2zm0-12h8v10h-8zm0 0" fill="url(#d)"></path><path d="m21 29h8c1.105469 0 2-.894531 2-2v-10c0-1.105469-.894531-2-2-2h-8c-1.105469 0-2 .894531-2 2v10c0 1.105469.894531 2 2 2zm0-12h8v10h-8zm0 0" fill="url(#e)"></path><path d="m7 45h8c1.105469 0 2-.894531 2-2v-10c0-1.105469-.894531-2-2-2h-8c-1.105469 0-2 .894531-2 2v10c0 1.105469.894531 2 2 2zm0-12h8v10h-8zm0 0" fill="url(#d)"></path><path d="m21 45h8c1.105469 0 2-.894531 2-2v-10c0-1.105469-.894531-2-2-2h-8c-1.105469 0-2 .894531-2 2v10c0 1.105469.894531 2 2 2zm0-12h8v10h-8zm0 0" fill="url(#e)"></path></svg>