<!-- icon666.com - MILLIONS vector ICONS FREE --><svg viewBox="0 0 64 64" xmlns="http://www.w3.org/2000/svg" xmlns:xlink="http://www.w3.org/1999/xlink"><linearGradient id="New_Gradient_Swatch_1" gradientUnits="userSpaceOnUse" x1="32" x2="32" y1="-1.152" y2="66.143"><stop offset="0" stop-color="#fff33b"></stop><stop offset=".014" stop-color="#fee72e"></stop><stop offset=".042" stop-color="#fed51b"></stop><stop offset=".07" stop-color="#fdca10"></stop><stop offset=".1" stop-color="#fdc70c"></stop><stop offset=".4" stop-color="#f3903f"></stop><stop offset=".8" stop-color="#ed683c"></stop><stop offset="1" stop-color="#e93e3a"></stop></linearGradient><path d="m61 18h-7v-15a1 1 0 0 0 -1-1h-12a1 1 0 0 0 -1 1v15h-2v-6a1 1 0 0 0 -.126-.486l-5-9a1.04 1.04 0 0 0 -1.748 0l-5 9a1 1 0 0 0 -.126.486v6h-4.056l2.014-6.713a1 1 0 0 0 -.158-.887l-6-8a1.036 1.036 0 0 0 -1.6 0l-6 8a1 1 0 0 0 -.158.887l2.014 6.713h-9.056a1 1 0 0 0 -1 1v26a1 1 0 0 0 1 1h10v11a1 1 0 0 0 .2.6l3 4a1 1 0 0 0 1.6 0l3-4a1 1 0 0 0 .2-.6v-11h5v11a5.006 5.006 0 0 0 5 5h2a5.006 5.006 0 0 0 5-5v-11h2v15a1 1 0 0 0 1 1h12a1 1 0 0 0 1-1v-15h7a1 1 0 0 0 1-1v-26a1 1 0 0 0 -1-1zm-30-5v36h-3v-36zm-3 38h8v2h-8zm5-2v-36h3v36zm-1-43.941 3.3 5.941h-6.6zm-11 15.941a1 1 0 0 1 -1 1h-6a1 1 0 0 1 0-2h6a1 1 0 0 1 1 1zm-2 9h-4v-2h4zm0-4h-4v-2h4zm-4 23h4v2h-4zm0-2v-15h4v15zm3-36a1 1 0 1 1 -1-1 1 1 0 0 1 1 1zm-2-5v2.184a3 3 0 1 0 2 0v-2.184l3.9 5.2-2.044 6.8h-5.712l-2.044-6.8zm-12 38v-24h7.184a2.947 2.947 0 0 0 1.816 3.816v20.184zm14 14v-3h-2v3l-1-1.333v-3.667h4v3.667zm3-14v-20.184a2.947 2.947 0 0 0 1.816-3.816h3.184v24zm12 16h-2a3 3 0 0 1 -3-3v-2h8v2a3 3 0 0 1 -3 3zm5-16v-24h2v24zm4 16v-56h10v9h-5v2h5v4h-5v2h5v4h-5v2h5v4h-5v2h5v4h-5v2h5v4h-5v2h5v4h-5v2h5v9zm18-16h-6v-24h6z" fill="url(#New_Gradient_Swatch_1)"></path></svg>