<!-- icon666.com - MILLIONS vector ICONS FREE --><svg version="1.1" id="Capa_1" xmlns="http://www.w3.org/2000/svg" xmlns:xlink="http://www.w3.org/1999/xlink" x="0px" y="0px" viewBox="0 0 480 480" style="enable-background:new 0 0 480 480;" xml:space="preserve"><linearGradient id="SVGID_1_" gradientUnits="userSpaceOnUse" x1="-58.68" y1="587.625" x2="5.755" y2="587.625" gradientTransform="matrix(8 0 0 -8 455 4941)"><stop offset="0" style="stop-color:#FC4A1A"></stop><stop offset="1" style="stop-color:#F7B733"></stop></linearGradient><path style="fill:url(#SVGID_1_);" d="M440,16H40C17.92,16.026,0.026,33.92,0,56v208c0.026,22.08,17.92,39.974,40,40h392v64 c0,13.255-10.745,24-24,24h-8v-64c0-4.418-3.582-8-8-8H200c-4.418,0-8,3.582-8,8v128c0,4.418,3.582,8,8,8h192c4.418,0,8-3.582,8-8 v-48h8c22.08-0.026,39.974-17.92,40-40v-64.8c18.611-3.827,31.976-20.199,32-39.2V56C479.974,33.92,462.08,16.026,440,16z M384,448 H208V336h176V448z M464,264c0,13.255-10.745,24-24,24H40c-13.255,0-24-10.745-24-24v-24h448V264z M16,224V56 c0-13.255,10.745-24,24-24h400c13.255,0,24,10.745,24,24v168H16z"></path><g><linearGradient id="SVGID_2_" gradientUnits="userSpaceOnUse" x1="-58.68" y1="610.625" x2="5.755" y2="610.625" gradientTransform="matrix(8 0 0 -8 455 4941)"><stop offset="0" style="stop-color:#FC4A1A"></stop><stop offset="1" style="stop-color:#F7B733"></stop></linearGradient><path style="fill:url(#SVGID_2_);" d="M232,64h16c4.418,0,8-3.582,8-8s-3.582-8-8-8h-16c-4.418,0-8,3.582-8,8S227.582,64,232,64z"></path><linearGradient id="SVGID_3_" gradientUnits="userSpaceOnUse" x1="-58.68" y1="584.625" x2="5.755" y2="584.625" gradientTransform="matrix(8 0 0 -8 455 4941)"><stop offset="0" style="stop-color:#FC4A1A"></stop><stop offset="1" style="stop-color:#F7B733"></stop></linearGradient><path style="fill:url(#SVGID_3_);" d="M424,272h16c4.418,0,8-3.582,8-8s-3.582-8-8-8h-16c-4.418,0-8,3.582-8,8S419.582,272,424,272 z"></path><linearGradient id="SVGID_4_" gradientUnits="userSpaceOnUse" x1="-58.68" y1="600.625" x2="5.755" y2="600.625" gradientTransform="matrix(8 0 0 -8 455 4941)"><stop offset="0" style="stop-color:#FC4A1A"></stop><stop offset="1" style="stop-color:#F7B733"></stop></linearGradient><path style="fill:url(#SVGID_4_);" d="M72,64H40c-4.418,0-8,3.582-8,8v128c0,4.418,3.582,8,8,8h32c4.418,0,8-3.582,8-8V72 C80,67.582,76.418,64,72,64z M64,192H48V80h16V192z"></path><linearGradient id="SVGID_5_" gradientUnits="userSpaceOnUse" x1="-58.68" y1="600.1245" x2="5.755" y2="600.1245" gradientTransform="matrix(8 0 0 -8 455 4941)"><stop offset="0" style="stop-color:#FC4A1A"></stop><stop offset="1" style="stop-color:#F7B733"></stop></linearGradient><path style="fill:url(#SVGID_5_);" d="M240,112c-11.824,0.003-23.227,4.393-32,12.32V80c0-4.418-3.582-8-8-8h-64 c-4.418,0-8,3.582-8,8v64c0,4.418,3.582,8,8,8h56.72c-4.418,26.139,13.19,50.91,39.329,55.329 c26.139,4.418,50.91-13.19,55.329-39.329s-13.19-50.91-39.329-55.329C245.389,112.222,242.697,111.997,240,112z M192,136h-48V88h48 V136z M240,192c-17.673,0-32-14.327-32-32s14.327-32,32-32s32,14.327,32,32S257.673,192,240,192z"></path><linearGradient id="SVGID_6_" gradientUnits="userSpaceOnUse" x1="-58.68" y1="604.6028" x2="5.755" y2="604.6028" gradientTransform="matrix(8 0 0 -8 455 4941)"><stop offset="0" style="stop-color:#FC4A1A"></stop><stop offset="1" style="stop-color:#F7B733"></stop></linearGradient><path style="fill:url(#SVGID_6_);" d="M351.2,60.424c-2.358-3.954-7.475-5.249-11.429-2.891c-1.189,0.709-2.182,1.702-2.891,2.891 l-40,80c-1.975,3.952-0.372,8.757,3.58,10.732c1.099,0.549,2.311,0.838,3.54,0.844h80c4.418,0.024,8.02-3.538,8.044-7.956 c0.007-1.256-0.282-2.496-0.844-3.62L351.2,60.424z M316.944,136L344,81.888L371.056,136H316.944z"></path><linearGradient id="SVGID_7_" gradientUnits="userSpaceOnUse" x1="-58.68" y1="568.625" x2="5.755" y2="568.625" gradientTransform="matrix(8 0 0 -8 455 4941)"><stop offset="0" style="stop-color:#FC4A1A"></stop><stop offset="1" style="stop-color:#F7B733"></stop></linearGradient><path style="fill:url(#SVGID_7_);" d="M360,352H248c-4.418,0-8,3.582-8,8v64c0,4.418,3.582,8,8,8h112c4.418,0,8-3.582,8-8v-64 C368,355.582,364.418,352,360,352z M352,416h-96v-48h96V416z"></path><linearGradient id="SVGID_8_" gradientUnits="userSpaceOnUse" x1="-58.68" y1="568.6252" x2="5.755" y2="568.6252" gradientTransform="matrix(8 0 0 -8 455 4941)"><stop offset="0" style="stop-color:#FC4A1A"></stop><stop offset="1" style="stop-color:#F7B733"></stop></linearGradient><path style="fill:url(#SVGID_8_);" d="M156.208,321.192c-2.358-1.458-5.304-1.592-7.784-0.352l-32,16 c-2.712,1.355-4.425,4.128-4.424,7.16v112c0,4.418,3.582,8,8,8h32c4.418,0,8-3.582,8-8V328 C160.001,325.227,158.567,322.651,156.208,321.192z M144,340.944V368h-16v-19.056L144,340.944z M144,448h-16v-64h16V448z"></path><linearGradient id="SVGID_9_" gradientUnits="userSpaceOnUse" x1="-58.68" y1="568.625" x2="5.755" y2="568.625" gradientTransform="matrix(8 0 0 -8 455 4941)"><stop offset="0" style="stop-color:#FC4A1A"></stop><stop offset="1" style="stop-color:#F7B733"></stop></linearGradient><path style="fill:url(#SVGID_9_);" d="M216,384h16v16h-16V384z"></path></g></svg>