<!-- icon666.com - MILLIONS vector ICONS FREE --><svg viewBox="0 0 336 336.983" xmlns="http://www.w3.org/2000/svg" xmlns:xlink="http://www.w3.org/1999/xlink"><linearGradient id="a" gradientUnits="userSpaceOnUse" x1="-29.101" x2="320.903" y1="263.944" y2="61.869"><stop offset="0" stop-color="#f14d5c"></stop><stop offset=".1309" stop-color="#f05454"></stop><stop offset=".3346" stop-color="#ed663e"></stop><stop offset=".3492" stop-color="#ed683c"></stop><stop offset=".714" stop-color="#f3903f"></stop><stop offset="1" stop-color="#fdc70c"></stop></linearGradient><path d="m213.71875 0c-33.058594 0-64.132812 12.871094-87.507812 36.246094s-36.246094 54.449218-36.246094 87.507812c0 24.234375 6.925781 47.398438 19.828125 67.25l-12.667969 12.671875-90.664062 90.664063c-8.355469 8.355468-7.882813 22.417968 1.054687 31.351562l4.261719 4.261719c4.667968 4.667969 10.734375 7.03125 16.65625 7.03125 5.417968 0 10.714844-1.976563 14.703125-5.96875l15.40625-15.402344 75.257812-75.261719 12.671875-12.671874c19.847656 12.902343 43.011719 19.828124 67.246094 19.828124 33.054688 0 64.132812-12.875 87.503906-36.246093 48.253906-48.253907 48.253906-126.765625 0-175.015625-23.371094-23.375-54.449218-36.246094-87.503906-36.246094zm-162.25 308.539062c-4.453125 4.453126-12.175781 3.980469-17.21875-1.0625l-4.261719-4.261718c-5.035156-5.035156-5.507812-12.753906-1.054687-17.210938l71.382812-71.378906c3.28125 4.164062 6.832032 8.160156 10.597656 11.925781 3.769532 3.765625 7.765626 7.316407 11.9375 10.605469zm-32.625 14.34375-4.257812-4.261718c-5.039063-5.035156-5.511719-12.757813-1.054688-17.210938l2.902344-2.902344c.933594 4.269532 3.097656 8.394532 6.484375 11.78125l4.261719 4.257813c3.390624 3.394531 7.523437 5.550781 11.796874 6.484375l-2.914062 2.914062c-4.453125 4.453126-12.175781 3.976563-17.21875-1.0625zm107.894531-89.613281c.003907-.003906.007813-.003906.007813-.007812zm3.246094-3.246093c-4.199219-3.246094-8.230469-6.773438-11.996094-10.542969-3.773437-3.769531-7.296875-7.796875-10.539062-11.988281l8.214843-8.214844c3.234376 4.179687 6.75 8.183594 10.546876 11.980468 3.800781 3.800782 7.804687 7.316407 11.988281 10.554688zm164.167969-25.835938c-21.484375 21.484375-50.050782 33.320312-80.4375 33.320312-30.382813 0-58.949219-11.835937-80.433594-33.320312s-33.320312-50.050781-33.320312-80.433594c0-30.386718 11.835937-58.953125 33.320312-80.4375s50.050781-33.316406 80.433594-33.316406c30.386718 0 58.953125 11.832031 80.4375 33.316406 44.351562 44.355469 44.351562 116.519532 0 160.871094zm0 0" fill="url(#a)"></path><path d="m171.070312 27.761719 3.601563 9.328125c2.59375-1 5.269531-1.886719 7.949219-2.632813l-2.675782-9.636719c-2.996093.832032-5.980468 1.820313-8.875 2.941407zm0 0" fill="#f4943b"></path><path d="m119.214844 75.378906 8.984375 4.386719c8.300781-16.992187 22.191406-30.996094 39.121093-39.433594l-4.460937-8.949219c-18.886719 9.414063-34.382813 25.035157-43.644531 43.996094zm0 0" fill="#f1853e"></path></svg>