<!-- icon666.com - MILLIONS vector ICONS FREE --><svg id="line_gradient_copy" viewBox="0 0 64 64" xmlns="http://www.w3.org/2000/svg" xmlns:xlink="http://www.w3.org/1999/xlink" data-name="line gradient copy"><linearGradient id="linear-gradient" gradientUnits="userSpaceOnUse" x1="6.16" x2="57.842" y1="32.07" y2="32.07"><stop offset="0" stop-color="#ffde00"></stop><stop offset="1" stop-color="#fd5900"></stop></linearGradient><path d="m55.1543 36.4502h-1.02082a6.70851 6.70851 0 0 0 -.41845-9.80284c-2.42579-30.67063-46.49186-29.71651-47.55491 1.15284a23.58474 23.58474 0 0 0 7.16117 17.00546 1.00048 1.00048 0 0 0 1.39743-1.43166 21.56111 21.56111 0 0 1 -6.46158-13.60618l5.02411 3.90406a1.63647 1.63647 0 0 1 .63086 1.28027 3.63419 3.63419 0 0 0 3.62451 3.63574c.95442.17635 5.05459-2.00287 6.20413-2.42963a1.92188 1.92188 0 0 1 2.53219.958l.8545 1.875a3.96034 3.96034 0 0 0 3.57813 2.28027 1.95777 1.95777 0 0 1 1.93164 1.93165c.14406-.01684-1.70538 6.17454-1.7332 6.36258a21.49379 21.49379 0 0 1 -12.35714-3.19558.99982.99982 0 0 0 -1.05366 1.69923 23.83793 23.83793 0 0 0 24.86207.03376 3.63331 3.63331 0 0 0 2.08529.37438l1.014 10.61723a1.00052 1.00052 0 0 0 .99563.90522h5.96a1.00009 1.00009 0 0 0 .9956-.90527l.41992-4.40039a1.00015 1.00015 0 0 0 -1.99121-.18942l-.33351 3.49508h-4.14114l-.90973-9.52246h5.959l-.19476 2.02637a1.00019 1.00019 0 0 0 1.9912.1914l.2132-2.21777h.73554a2.646 2.646 0 0 0 2.688-2.66016v-6.707a2.67736 2.67736 0 0 0 -2.68801-2.66018zm-5.75971 0a4.71829 4.71829 0 1 1 -.11814-9.43263 4.71829 4.71829 0 1 1 .11814 9.43263zm-7.9259 1.19232a2.5096 2.5096 0 0 1 .274-2.916l.979-1.1546a6.70035 6.70035 0 0 0 1.698 2.87824 3.03445 3.03445 0 0 0 -2.951 1.19236zm10.13965-12.21143a6.89844 6.89844 0 0 0 -8.32454 3.10378l-3.1505-4.32687a1.54524 1.54524 0 0 1 .0767-1.90722l1.978-2.31055a3.55941 3.55941 0 0 0 .22947-4.28125 1.53719 1.53719 0 0 1 .5142-2.17772l2.274-1.28413a21.54039 21.54039 0 0 1 6.40267 13.18396zm-20.90277 13.84039a1.95 1.95 0 0 1 -1.76123-1.11718l-.8501-1.86524a3.91223 3.91223 0 0 0 -5.17236-1.95506l-4.73388 2.11229a1.64416 1.64416 0 0 1 -2.27588-1.49414 3.65271 3.65271 0 0 0 -1.40283-2.85938l-6.32856-4.91827a21.68405 21.68405 0 0 1 2.37976-9.31116l.12945.65521a2.83815 2.83815 0 0 0 2.77006 2.27145c.842.09419 1.85992-.93321 2.30861.25492l1.08983 3.79977a5.41309 5.41309 0 0 0 5.18648 3.90731c.144.03061 3.1282-.22432 3.35937-.22457a5.41 5.41 0 0 0 4.98585-5.377v-.94043a1.0001 1.0001 0 0 0 -2 0v.94039a3.36114 3.36114 0 0 1 -3.13037 3.38281l-2.97168.21a3.40364 3.40364 0 0 1 -3.50684-2.44824l-1.08789-3.793a2.79415 2.79415 0 0 0 -1.53027-1.79496 3.45725 3.45725 0 0 0 -2.7031.08315.82049.82049 0 0 1 -.80911-.66323l-.55658-2.81726a21.63419 21.63419 0 0 1 15.16547-9.1333v2.13321a2.51917 2.51917 0 0 1 -.78614 1.82422 4.54374 4.54374 0 0 0 -.38813 6.14942 11.0343 11.0343 0 0 1 1.65813 2.34963 1.00016 1.00016 0 0 0 1.8125-.84577 12.371 12.371 0 0 0 -1.92676-2.77535 2.529 2.529 0 0 1 .21684-3.42382 4.52372 4.52372 0 0 0 1.41356-3.27833v-2.296a21.70734 21.70734 0 0 1 14.37023 4.82579l-1.68029.94873a3.55241 3.55241 0 0 0 -1.18013 5.05372 1.47863 1.47863 0 0 1 .26021.84862 1.58867 1.58867 0 0 1 -.36963 1.00879l-1.97022 2.30178a3.54558 3.54558 0 0 0 -.17871 4.37793l3.23977 4.4492a1.50817 1.50817 0 0 1 -.0835 1.8955l-1.44434 1.70313a4.54139 4.54139 0 0 0 .7959 6.65484c.03567.27441-.09422 6.335.10479 6.43071a21.57437 21.57437 0 0 1 -8.08941 2.86928c.19041-.89743 1.67321-5.36366 1.60284-6.17847a3.9361 3.9361 0 0 0 -3.93171-3.93164zm25.13672 6.5459a.66.66 0 0 1 -.688.66016h-11.44729a.66739.66739 0 0 1 -.688-.66016v-6.707a.68375.68375 0 0 1 .688-.66015c2.96647.00117 8.47531 0 11.44728 0a.6674.6674 0 0 1 .688.66016z" fill="url(#linear-gradient)"></path></svg>