<!-- icon666.com - MILLIONS vector ICONS FREE --><svg viewBox="-45 0 332 332" xmlns="http://www.w3.org/2000/svg" xmlns:xlink="http://www.w3.org/1999/xlink"><linearGradient id="a" gradientUnits="userSpaceOnUse" x1="-30.847" x2="252.508" y1="253.669" y2="90.074"><stop offset="0" stop-color="#f14d5c"></stop><stop offset=".1309" stop-color="#f05454"></stop><stop offset=".3346" stop-color="#ed663e"></stop><stop offset=".3492" stop-color="#ed683c"></stop><stop offset=".714" stop-color="#f3903f"></stop><stop offset="1" stop-color="#fdc70c"></stop></linearGradient><linearGradient id="b" gradientUnits="userSpaceOnUse" x1="126.354" x2="208.646" y1="174.235" y2="126.725"><stop offset="0" stop-color="#ed6b3c"></stop><stop offset=".1203" stop-color="#ee733d"></stop><stop offset=".3076" stop-color="#f2893f"></stop><stop offset=".3492" stop-color="#f38f3f"></stop><stop offset=".714" stop-color="#f7a42d"></stop><stop offset="1" stop-color="#fdc70c"></stop></linearGradient><linearGradient id="c" gradientUnits="userSpaceOnUse" x1="42.575" x2="95.648" y1="168.336" y2="137.695"><stop offset="0" stop-color="#ee6243"></stop><stop offset=".3492" stop-color="#ed683c"></stop><stop offset=".714" stop-color="#f3903f"></stop><stop offset="1" stop-color="#fdc70c"></stop></linearGradient><linearGradient id="d" gradientUnits="userSpaceOnUse" x1="144.666" x2="196.144" y1="166.918" y2="137.197"><stop offset=".00000011" stop-color="#ee723d"></stop><stop offset=".2996" stop-color="#ed6a3c"></stop><stop offset=".3492" stop-color="#ed683c"></stop><stop offset=".714" stop-color="#f3903f"></stop><stop offset="1" stop-color="#fdc70c"></stop></linearGradient><linearGradient id="e" gradientUnits="userSpaceOnUse" x1="42.575" x2="95.647" y1="262.771" y2="232.129"><stop offset="0" stop-color="#f14d5c"></stop><stop offset=".1309" stop-color="#f05454"></stop><stop offset=".3346" stop-color="#ed663e"></stop><stop offset=".3492" stop-color="#ed683c"></stop><stop offset=".714" stop-color="#ee5e48"></stop><stop offset="1" stop-color="#ef763d"></stop></linearGradient><linearGradient id="f" gradientUnits="userSpaceOnUse" x1="144.666" x2="196.144" y1="262.437" y2="232.716"><stop offset=".00000011" stop-color="#ef753d"></stop><stop offset=".2485" stop-color="#ee6d3c"></stop><stop offset=".3492" stop-color="#ed683c"></stop><stop offset=".714" stop-color="#f3903f"></stop><stop offset="1" stop-color="#f59937"></stop></linearGradient><path d="m160.988281 0h-126.988281c-18.746094 0-34 15.253906-34 34v264c0 18.746094 15.253906 34 34 34h174c18.746094 0 34-15.253906 34-34v-216.988281c0-9.082031-3.535156-17.621094-9.957031-24.039063l-47.011719-47.015625c-6.425781-6.421875-14.960938-9.957031-24.042969-9.957031zm71.011719 298c0 13.234375-10.765625 24-24 24h-174c-13.234375 0-24-10.765625-24-24v-264c0-13.234375 10.765625-24 24-24h126.988281c1.53125 0 3.039063.144531 4.511719.425781v38.074219c0 14.886719 12.113281 27 27 27h38.859375c.417969 1.785156.640625 3.632812.640625 5.511719zm-5.691406-232.5h-33.808594c-9.375 0-17-7.625-17-17v-33.613281c.859375.652343 1.683594 1.367187 2.460938 2.144531l47.011718 47.011719c.46875.46875.910156.957031 1.335938 1.457031zm0 0" fill="url(#a)"></path><path d="m167.5 102.960938c-26.203125 0-47.519531 21.316406-47.519531 47.519531s21.316406 47.519531 47.519531 47.519531 47.519531-21.316406 47.519531-47.519531-21.316406-47.519531-47.519531-47.519531zm0 85.039062c-20.6875 0-37.519531-16.832031-37.519531-37.519531s16.832031-37.519531 37.519531-37.519531 37.519531 16.832031 37.519531 37.519531-16.832031 37.519531-37.519531 37.519531zm0 0" fill="url(#b)"></path><path d="m94.089844 134.992188-7.070313-7.070313-17.867187 17.863281-17.863282-17.863281-7.066406 7.070313 17.863282 17.863281-18.035157 18.035156 7.070313 7.070313 18.03125-18.035157 18.035156 18.035157 7.074219-7.070313-18.035157-18.035156zm0 0" fill="url(#c)"></path><path d="m156.847656 161.050781-10.445312-10.441406-7.070313 7.074219 17.515625 17.511718 38.820313-38.824218-7.070313-7.070313zm0 0" fill="url(#d)"></path><path d="m94.089844 229.429688-7.070313-7.074219-17.867187 17.863281-17.863282-17.863281-7.066406 7.074219 17.863282 17.859374-18.035157 18.035157 7.070313 7.070312 18.03125-18.035156 18.035156 18.035156 7.074219-7.070312-18.035157-18.035157zm0 0" fill="url(#e)"></path><path d="m156.847656 256.570312-10.445312-10.441406-7.070313 7.070313 17.515625 17.511719 38.820313-38.820313-7.070313-7.074219zm0 0" fill="url(#f)"></path></svg>