<!-- icon666.com - MILLIONS vector ICONS FREE --><svg viewBox="0 -31 480 479" xmlns="http://www.w3.org/2000/svg" xmlns:xlink="http://www.w3.org/1999/xlink"><linearGradient id="a"><stop offset="0" stop-color="#e93e3a"></stop><stop offset=".359" stop-color="#ed683c"></stop><stop offset=".705" stop-color="#f3903f"></stop><stop offset="1" stop-color="#fdc70c"></stop></linearGradient><linearGradient id="b" gradientUnits="userSpaceOnUse" x1="240" x2="240" xlink:href="#a" y1="422.644" y2="-47.524"></linearGradient><linearGradient id="c" gradientUnits="userSpaceOnUse" x1="176" x2="176" xlink:href="#a" y1="422.644" y2="-47.524"></linearGradient><linearGradient id="d" gradientUnits="userSpaceOnUse" x1="344" x2="344" xlink:href="#a" y1="422.644" y2="-47.524"></linearGradient><linearGradient id="e" gradientUnits="userSpaceOnUse" x1="244" x2="244" xlink:href="#a" y1="422.644" y2="-47.524"></linearGradient><path d="m464 352.5v-232c-.027344-22.082031-17.917969-39.972656-40-40v-56c0-13.253906-10.746094-24-24-24h-192c-13.253906 0-24 10.746094-24 24v24h-104c-13.253906 0-24 10.746094-24 24v8c-22.082031.027344-39.972656 17.917969-40 40v232c-8.835938 0-16 7.164062-16 16v8c.0273438 22.082031 17.917969 39.972656 40 40h400c22.082031-.027344 39.972656-17.917969 40-40v-8c0-8.835938-7.164062-16-16-16zm-264-328c0-4.417969 3.582031-8 8-8h192c4.417969 0 8 3.582031 8 8v128c0 4.417969-3.582031 8-8 8h-32c-2.121094 0-4.15625.84375-5.65625 2.34375l-34.34375 34.34375v-28.6875c0-4.417969-3.582031-8-8-8h-24v-88c0-13.253906-10.746094-24-24-24h-72zm-128 48c0-4.417969 3.582031-8 8-8h192c4.417969 0 8 3.582031 8 8v128c0 4.417969-3.582031 8-8 8h-80c-4.417969 0-8 3.582031-8 8v28.6875l-34.34375-34.34375c-1.5-1.5-3.535156-2.34375-5.65625-2.34375h-64c-4.417969 0-8-3.582031-8-8zm-40 48c0-13.253906 10.746094-24 24-24v104c0 13.253906 10.746094 24 24 24h60.6875l45.65625 45.65625c1.5 1.5 3.535156 2.34375 5.65625 2.34375 1.050781.003906 2.09375-.203125 3.0625-.609375 2.988281-1.238281 4.9375-4.15625 4.9375-7.390625v-40h72c13.253906 0 24-10.746094 24-24v-24h16v40c0 3.234375 1.949219 6.152344 4.9375 7.390625.96875.40625 2.011719.613281 3.0625.609375 2.121094 0 4.15625-.84375 5.65625-2.34375l45.65625-45.65625h28.6875c13.253906 0 24-10.746094 24-24v-56c13.253906 0 24 10.746094 24 24v232h-416zm432 256c0 13.253906-10.746094 24-24 24h-400c-13.253906 0-24-10.746094-24-24v-8h184c0 8.835938 7.164062 16 16 16h48c8.835938 0 16-7.164062 16-16h184zm0 0" fill="url(#b)"></path><g fill="url(#c)"><path d="m104 96.5h144v16h-144zm0 0"></path><path d="m104 128.5h144v16h-144zm0 0"></path><path d="m104 160.5h144v16h-144zm0 0"></path></g><path d="m312 48.5h64v16h-64zm0 0" fill="url(#d)"></path><path d="m312 80.5h64v16h-64zm0 0" fill="url(#d)"></path><path d="m312 112.5h64v16h-64zm0 0" fill="url(#d)"></path><path d="m432 320.5v-80h-16v80h-344v-80h-16v80c0 8.835938 7.164062 16 16 16h344c8.835938 0 16-7.164062 16-16zm0 0" fill="url(#e)"></path></svg>