<!-- icon666.com - MILLIONS vector ICONS FREE --><svg viewBox="0 0 64 64" xmlns="http://www.w3.org/2000/svg" xmlns:xlink="http://www.w3.org/1999/xlink"><linearGradient id="New_Gradient_Swatch" gradientUnits="userSpaceOnUse" x1="32" x2="32" y1="63.974" y2=".206"><stop offset="0" stop-color="#e93e3a"></stop><stop offset=".35" stop-color="#ed683c"></stop><stop offset=".7" stop-color="#f3903f"></stop><stop offset="1" stop-color="#fdc70c"></stop></linearGradient><linearGradient id="New_Gradient_Swatch-3" x1="26" x2="26" xlink:href="#New_Gradient_Swatch" y1="63.974" y2=".206"></linearGradient><linearGradient id="New_Gradient_Swatch-6" x1="25" x2="25" xlink:href="#New_Gradient_Swatch" y1="63.974" y2=".206"></linearGradient><linearGradient id="New_Gradient_Swatch-7" x1="39" x2="39" xlink:href="#New_Gradient_Swatch" y1="63.974" y2=".206"></linearGradient><linearGradient id="New_Gradient_Swatch-8" x1="41" x2="41" xlink:href="#New_Gradient_Swatch" y1="63.974" y2=".206"></linearGradient><linearGradient id="New_Gradient_Swatch-10" x1="37" x2="37" xlink:href="#New_Gradient_Swatch" y1="63.974" y2=".206"></linearGradient><linearGradient id="New_Gradient_Swatch-11" x1="30" x2="30" xlink:href="#New_Gradient_Swatch" y1="63.974" y2=".206"></linearGradient><linearGradient id="New_Gradient_Swatch-12" x1="34" x2="34" xlink:href="#New_Gradient_Swatch" y1="63.974" y2=".206"></linearGradient><g id="Smartphone-Gamepad-Gaming-Esport-Online"><path d="m45 2h-26a6 6 0 0 0 -6 6v48a6 6 0 0 0 6 6h26a6 6 0 0 0 6-6v-48a6 6 0 0 0 -6-6zm4 54a4 4 0 0 1 -4 4h-26a4 4 0 0 1 -4-4v-6h34zm0-8h-34v-36h34zm0-38h-34v-2a4 4 0 0 1 4-4h26a4 4 0 0 1 4 4z" fill="url(#New_Gradient_Swatch)"></path><path d="m34 52h-4a3 3 0 0 0 0 6h4a3 3 0 0 0 0-6zm0 4h-4a1 1 0 0 1 0-2h4a1 1 0 0 1 0 2z" fill="url(#New_Gradient_Swatch)"></path><path d="m25 6h2v2h-2z" fill="url(#New_Gradient_Swatch-3)"></path><path d="m29 6h6v2h-6z" fill="url(#New_Gradient_Swatch)"></path><path d="m21 40h3a1 1 0 0 0 .62-.215l4.522-3.57a1 1 0 0 1 .619-.215h4.478a1 1 0 0 1 .62.216l4.522 3.569a1 1 0 0 0 .619.215h3a3 3 0 0 0 3-3v-5a8.009 8.009 0 0 0 -8-8h-12a8.009 8.009 0 0 0 -8 8v5a3 3 0 0 0 3 3zm-1-8a6.006 6.006 0 0 1 6-6h12a6.006 6.006 0 0 1 6 6v5a1 1 0 0 1 -1 1h-2.653l-4.247-3.354a3.012 3.012 0 0 0 -1.861-.646h-4.478a3 3 0 0 0 -1.859.646l-4.249 3.354h-2.653a1 1 0 0 1 -1-1z" fill="url(#New_Gradient_Swatch)"></path><path d="m24 34h2v-2h2v-2h-2v-2h-2v2h-2v2h2z" fill="url(#New_Gradient_Swatch-6)"></path><path d="m38 28h2v2h-2z" fill="url(#New_Gradient_Swatch-7)"></path><path d="m40 30h2v2h-2z" fill="url(#New_Gradient_Swatch-8)"></path><path d="m38 32h2v2h-2z" fill="url(#New_Gradient_Swatch-7)"></path><path d="m36 30h2v2h-2z" fill="url(#New_Gradient_Swatch-10)"></path><path d="m29 28h2v2h-2z" fill="url(#New_Gradient_Swatch-11)"></path><path d="m33 28h2v2h-2z" fill="url(#New_Gradient_Swatch-12)"></path></g></svg>