<!-- icon666.com - MILLIONS vector ICONS FREE --><svg viewBox="0 0 128 128" xmlns="http://www.w3.org/2000/svg" xmlns:xlink="http://www.w3.org/1999/xlink"><linearGradient id="a" gradientUnits="userSpaceOnUse" x1="104.725" x2="23.276" y1="104.722" y2="23.273"><stop offset="0" stop-color="#fd5c70"></stop><stop offset="1" stop-color="#ffce64"></stop></linearGradient><path d="m61.877 57.25v4.928h8a1.75 1.75 0 0 1 0 3.5h-8v6.447a1.75 1.75 0 0 1 -3.5 0v-16.625a1.751 1.751 0 0 1 1.75-1.75h9.746a1.75 1.75 0 0 1 0 3.5zm-18.836 14.875v-11.116l8.567 12.126a1.751 1.751 0 0 0 3.18-1.01v-16.625a1.75 1.75 0 0 0 -3.5 0v11.116l-8.568-12.126a1.75 1.75 0 0 0 -3.179 1.01v16.625a1.75 1.75 0 0 0 3.5 0zm37.8 1.75a1.75 1.75 0 0 0 1.75-1.75v-14.875h4.123a1.75 1.75 0 0 0 0-3.5h-11.751a1.75 1.75 0 0 0 0 3.5h4.123v14.875a1.75 1.75 0 0 0 1.75 1.75zm10.886 40.825a7.3 7.3 0 1 1 -9.045-7.075v-4.833l-6.634-5.736-10.298 5.944v10.623a7.3 7.3 0 1 1 -3.5 0v-10.623l-10.3-5.946-6.633 5.736v4.833a7.3 7.3 0 1 1 -3.5 0v-5.633a1.749 1.749 0 0 1 .606-1.324l6.319-5.464-18.522-10.691a1.739 1.739 0 0 1 -.84-1.252l-2 2.317a1.747 1.747 0 0 1 -1.323.606h-5.638a7.3 7.3 0 1 1 0-3.5h4.833l4.093-4.733v-12.199h-14.926a7.3 7.3 0 1 1 0-3.5h14.926v-12.2l-4.093-4.733h-4.833a7.3 7.3 0 1 1 0-3.5h5.634a1.747 1.747 0 0 1 1.323.606l2 2.316a1.74 1.74 0 0 1 .841-1.257l6.418-3.7a1.75 1.75 0 1 1 1.75 3.031l-5.543 3.2v35.972l31.158 17.987 19.164-11.065a1.75 1.75 0 0 1 1.75 3.032l-5.657 3.266 6.319 5.464a1.749 1.749 0 0 1 .606 1.324v5.633a7.3 7.3 0 0 1 5.545 7.074zm-74.587-71.132a3.8 3.8 0 1 0 -3.8 3.8 3.8 3.8 0 0 0 3.8-3.8zm-6 20.432a3.8 3.8 0 1 0 -3.8 3.8 3.8 3.8 0 0 0 3.8-3.8zm6 20.432a3.8 3.8 0 1 0 -3.8 3.8 3.8 3.8 0 0 0 3.8-3.8zm26.428 26.473a3.8 3.8 0 1 0 3.8 3.8 3.8 3.8 0 0 0 -3.8-3.8zm20.432 6a3.8 3.8 0 1 0 3.8 3.8 3.8 3.8 0 0 0 -3.8-3.8zm24.227-2.2a3.8 3.8 0 1 0 -3.8 3.8 3.8 3.8 0 0 0 3.8-3.805zm10.428-48.955v12.2l4.093 4.733h4.832a7.3 7.3 0 1 1 0 3.5h-5.633a1.75 1.75 0 0 1 -1.324-.606l-2-2.316a1.737 1.737 0 0 1 -.84 1.251l-4.973 2.868a1.75 1.75 0 1 1 -1.75-3.031l4.095-2.364v-35.976l-31.155-17.987-16.5 9.524a1.75 1.75 0 1 1 -1.75-3.031l2.989-1.726-6.319-5.464a1.747 1.747 0 0 1 -.602-1.325v-5.632a7.3 7.3 0 1 1 3.5 0v4.832l6.634 5.736 10.3-5.946v-10.622a7.3 7.3 0 1 1 3.5 0v10.623l10.3 5.946 6.63-5.737v-4.832a7.3 7.3 0 1 1 3.5 0v5.632a1.747 1.747 0 0 1 -.606 1.323l-6.319 5.464 18.523 10.696a1.742 1.742 0 0 1 .841 1.256l2-2.315a1.75 1.75 0 0 1 1.324-.606h5.633a7.3 7.3 0 1 1 0 3.5h-4.832l-4.093 4.733v12.2h14.927a7.3 7.3 0 1 1 0 3.5zm18.2-1.75a3.8 3.8 0 1 0 3.8-3.8 3.8 3.8 0 0 0 -3.796 3.8zm-6-20.432a3.8 3.8 0 1 0 3.8-3.795 3.8 3.8 0 0 0 -3.796 3.795zm-26.423-26.479a3.8 3.8 0 1 0 -3.8-3.8 3.8 3.8 0 0 0 3.8 3.8zm-40.864 0a3.8 3.8 0 1 0 -3.8-3.8 3.8 3.8 0 0 0 3.8 3.8zm20.432-6a3.8 3.8 0 1 0 -3.8-3.8 3.8 3.8 0 0 0 3.8 3.8zm46.859 73.343a3.8 3.8 0 1 0 3.8-3.8 3.8 3.8 0 0 0 -3.8 3.8z" fill="url(#a)"></path></svg>