<!-- icon666.com - MILLIONS vector ICONS FREE --><svg viewBox="0 0 128 128" xmlns="http://www.w3.org/2000/svg" xmlns:xlink="http://www.w3.org/1999/xlink"><linearGradient id="a" gradientUnits="userSpaceOnUse" x1="97.876" x2="30.124" y1="89.434" y2="21.681"><stop offset="0" stop-color="#ff3d58"></stop><stop offset="1" stop-color="#ffe270"></stop></linearGradient><path d="m81.125 71.705a1.75 1.75 0 0 0 0 3.5h1.125a1.75 1.75 0 0 0 0-3.5zm20.338-45.712h-52.483a1.75 1.75 0 0 0 0 3.5h50.733v42.212h-10.963a1.75 1.75 0 0 0 0 3.5h10.963v6.417h-71.426v-6.417h45.913a1.75 1.75 0 0 0 0-3.5h-45.913v-42.212h5.963a1.75 1.75 0 0 0 0-3.5h-7.713a1.749 1.749 0 0 0 -1.75 1.75v55.629a1.75 1.75 0 0 0 1.75 1.75h43.376l.849 8.878h.009a1.744 1.744 0 0 0 1.729 1.583h3.682v2.924h-24.369v-2.924h13.937a1.75 1.75 0 0 0 0-3.5h-8.329l.244-2.549a1.75 1.75 0 0 0 -3.484-.333l-.276 2.882h-3.842a1.751 1.751 0 0 0 -1.75 1.75v6.424a1.75 1.75 0 0 0 1.75 1.75h27.873a1.749 1.749 0 0 0 1.75-1.75v-6.424a1.75 1.75 0 0 0 -1.75-1.75h-3.836l-.666-6.961h28.034a1.75 1.75 0 0 0 1.75-1.75v-55.629a1.749 1.749 0 0 0 -1.755-1.75zm-60.13 3.5h.834a1.75 1.75 0 0 0 0-3.5h-.834a1.75 1.75 0 0 0 0 3.5zm3.729 35.83a9.135 9.135 0 0 0 2.945.492 8.995 8.995 0 0 0 4.25-1.073 9.093 9.093 0 0 0 4.484-5.642l.219-.81h14.08l.218.81a9.1 9.1 0 0 0 4.485 5.642 8.986 8.986 0 0 0 7.194.581 9.211 9.211 0 0 0 5.763-11.173l-2.19-8.127a12.176 12.176 0 0 0 -11.74-9h-21.541a12.176 12.176 0 0 0 -11.739 9l-2.19 8.127a9.211 9.211 0 0 0 5.762 11.173zm-2.379-10.264 2.186-8.127a8.672 8.672 0 0 1 8.36-6.409h21.541a8.672 8.672 0 0 1 8.361 6.409l2.186 8.127a5.707 5.707 0 0 1 -3.5 6.95 5.564 5.564 0 0 1 -7.174-3.818l-.567-2.106a1.749 1.749 0 0 0 -1.689-1.3h-16.769a1.749 1.749 0 0 0 -1.689 1.3l-.568 2.106a5.563 5.563 0 0 1 -7.174 3.818 5.708 5.708 0 0 1 -3.504-6.95zm6.3-5.156h1.783v1.782a1.75 1.75 0 0 0 3.5 0v-1.785h1.782a1.75 1.75 0 0 0 0-3.5h-1.784v-1.78a1.75 1.75 0 0 0 -3.5 0v1.78h-1.783a1.75 1.75 0 0 0 0 3.5zm21.642 0a1.749 1.749 0 1 0 -1.748-1.748 1.749 1.749 0 0 0 1.746 1.745zm7.154 0a1.749 1.749 0 1 0 -1.749-1.748 1.748 1.748 0 0 0 1.747 1.745zm-3.579-3.579a1.749 1.749 0 1 0 -1.748-1.748 1.748 1.748 0 0 0 1.748 1.748zm0 7.154a1.749 1.749 0 1 0 -1.748-1.749 1.749 1.749 0 0 0 1.748 1.749z" fill="url(#a)"></path></svg>