<!-- icon666.com - MILLIONS vector ICONS FREE --><svg viewBox="0 0 128 128" xmlns="http://www.w3.org/2000/svg" xmlns:xlink="http://www.w3.org/1999/xlink"><linearGradient id="a" gradientUnits="userSpaceOnUse" x1="90.736" x2="36.789" y1="88.773" y2="34.826"><stop offset="0" stop-color="#e03f3f"></stop><stop offset="1" stop-color="#ffb703"></stop></linearGradient><path d="m47.431 83.808a1.75 1.75 0 0 1 0-3.5 6.524 6.524 0 0 0 1.068-.09 1.75 1.75 0 1 1 .581 3.451 9.947 9.947 0 0 1 -1.649.139zm32.506-50.739v3.514h5.363a6.333 6.333 0 0 1 6.326 6.325v1.3a10.35 10.35 0 0 1 9.364 6.807h3.579a5.716 5.716 0 0 1 5.71 5.71v10.148a5.716 5.716 0 0 1 -5.71 5.71h-2.948v.877a10.359 10.359 0 0 1 -10.352 10.348h-11.176a9.858 9.858 0 0 1 -7.017-2.908l-6.252-6.252a4.33 4.33 0 0 0 -6.123 0l-2.061 2.06a1.75 1.75 0 0 1 -2.475-2.475l2.061-2.059a7.828 7.828 0 0 1 11.073 0l6.252 6.252a6.38 6.38 0 0 0 4.542 1.882h11.176a6.856 6.856 0 0 0 6.847-6.848v-18.92a6.856 6.856 0 0 0 -6.847-6.848h-10a1.75 1.75 0 0 1 0-3.5h6.855v-1.284a2.829 2.829 0 0 0 -2.824-2.825h-43.071a2.828 2.828 0 0 0 -2.829 2.825v1.284h31.822a1.75 1.75 0 0 1 0 3.5h-34.966a6.856 6.856 0 0 0 -6.848 6.848v18.92a6.856 6.856 0 0 0 6.848 6.848 1.75 1.75 0 0 1 0 3.5 10.36 10.36 0 0 1 -10.348-10.348v-.877h-2.948a5.717 5.717 0 0 1 -5.71-5.71v-10.146a5.716 5.716 0 0 1 5.71-5.71h3.579a10.351 10.351 0 0 1 9.361-6.807v-1.3a6.332 6.332 0 0 1 6.325-6.325h5.834v-3.516a5.717 5.717 0 0 1 5.71-5.71h20.458a5.717 5.717 0 0 1 5.71 5.71zm-54.029 21.448h-2.948a2.213 2.213 0 0 0 -2.21 2.21v10.146a2.213 2.213 0 0 0 2.21 2.21h2.948zm50.529-21.448a2.213 2.213 0 0 0 -2.21-2.21h-20.454a2.213 2.213 0 0 0 -2.21 2.21v3.514h24.874zm25.179 36.014h2.948a2.212 2.212 0 0 0 2.21-2.21v-10.146a2.212 2.212 0 0 0 -2.21-2.21h-2.948zm-7.234-3.824v-9.63a1.75 1.75 0 1 0 -3.5 0v9.63a1.75 1.75 0 1 0 3.5 0zm0 7.691v-1.52a1.75 1.75 0 0 0 -3.5 0v1.52a1.75 1.75 0 0 0 3.5 0zm-45.573-18.433a1.75 1.75 0 0 0 0-3.5h-9.04a1.75 1.75 0 0 0 0 3.5z" fill="url(#a)"></path></svg>