<!-- icon666.com - MILLIONS vector ICONS FREE --><svg id="Layer_1" enable-background="new 0 0 512 512" viewBox="0 0 512 512" xmlns="http://www.w3.org/2000/svg" xmlns:xlink="http://www.w3.org/1999/xlink"><linearGradient id="SVGID_1_" gradientUnits="userSpaceOnUse" x1="75.065" x2="436.935" y1="75.065" y2="436.935"><stop offset="0" stop-color="#fcc20f"></stop><stop offset="1" stop-color="#e93128"></stop></linearGradient><path d="m256 0c-141.1587 0-256 114.8408-256 256s114.8413 256 256 256 256-114.8408 256-256-114.8413-256-256-256zm0 480c-21.6583 0-49.3085-41.8755-63.9104-114.7148 20.4547-2.1563 41.9266-3.2881 63.9104-3.2881 21.9837 0 43.4557 1.1318 63.9104 3.2881-14.6019 72.8393-42.2521 114.7148-63.9104 114.7148zm0-150.0029c-23.7001 0-46.9293 1.2778-69.1202 3.7158-2.5012-18.9971-4.1363-39.6211-4.675-61.7129h147.5906c-.5388 22.0918-2.1738 42.7158-4.675 61.7129-22.1911-2.438-45.4203-3.7158-69.1204-3.7158zm0-297.9971c21.6584 0 49.3087 41.876 63.9106 114.7158-20.4548 2.1563-41.9269 3.2881-63.9106 3.2881s-43.4557-1.1318-63.9106-3.2881c14.6018-72.8398 42.2522-114.7158 63.9106-114.7158zm0 150.0039c23.7001 0 46.9293-1.2783 69.1204-3.7158 2.5012 18.9966 4.1362 39.6206 4.6749 61.7119h-147.5906c.5388-22.0913 2.1738-42.7153 4.6749-61.7119 22.1911 2.4375 45.4203 3.7158 69.1204 3.7158zm-105.7969 57.9961h-117.6256c2.4024-33.8735 12.371-65.6851 28.22-93.7607 25.5903 12.125 58.0745 21.543 94.4858 27.6675-2.8128 21.1552-4.5303 43.3481-5.0802 66.0932zm0 32c.5499 22.7451 2.2674 44.9385 5.0804 66.0938-36.4117 6.1245-68.8958 15.5425-94.4857 27.6675-15.8492-28.0758-25.8179-59.8878-28.2203-93.7613zm211.5938 0h117.6255c-2.4024 33.8735-12.3711 65.6855-28.2203 93.7612-25.59-12.1245-58.0742-21.543-94.4857-27.6675 2.8131-21.1552 4.5306-43.3486 5.0805-66.0937zm0-32c-.5499-22.7451-2.2673-44.938-5.0803-66.0933 36.4112-6.1245 68.8954-15.5425 94.4858-27.6675 15.8491 28.0757 25.8176 59.8872 28.22 93.7607h-117.6255zm71.5055-120.7256c-22.3057 10.0176-50.2909 17.8804-81.7344 23.144-4.3796-22.377-10.077-43.1445-16.9973-61.6011-5.9731-15.9307-12.7311-29.6611-20.1204-41.0654 47.8255 12.9405 89.3508 41.3545 118.8521 79.5225zm-235.7528-79.5224c-7.3892 11.4043-14.1472 25.1348-20.1204 41.0654-6.9203 18.4565-12.6177 39.2241-16.9973 61.6011-31.4436-5.2637-59.4288-13.1265-81.7344-23.144 29.5013-38.1681 71.0267-66.5821 118.8521-79.5225zm-118.8515 352.9741c22.3051-10.0176 50.29-17.8804 81.7339-23.144 4.3796 22.377 10.077 43.1445 16.9973 61.6006 5.9731 15.9307 12.7311 29.6611 20.1204 41.0654-47.8253-12.9405-89.3504-41.3545-118.8516-79.522zm235.7523 79.5219c7.3892-11.4043 14.1472-25.1348 20.1204-41.0654 6.9203-18.4561 12.6176-39.2236 16.9972-61.6006 31.4438 5.2637 59.4288 13.1265 81.7339 23.144-29.5012 38.168-71.0264 66.5816-118.8515 79.522z" fill="url(#SVGID_1_)"></path></svg>